<svg width="40" height="35" viewBox="0 0 40 35" fill="none" xmlns="http://www.w3.org/2000/svg">
<path d="M34.1012 0L33.0146 5.73009L28.1504 6.76254L33.0146 7.84661L34.1012 13.5251L35.1362 7.84661L40.0003 6.76254L35.1362 5.73009L34.1012 0Z" fill="white"/>
<path d="M22.4062 9.96094C15.4722 9.96094 8.53816 9.96094 1.60414 9.96094H0C2.06986 11.8193 3.77749 13.4196 5.58862 14.9167C6.15783 15.3813 6.98577 15.7426 7.65847 15.7426C12.3674 15.7943 17.0246 15.7426 21.7335 15.7943C23.1824 15.7943 24.0621 16.6202 24.0103 17.8592C24.0103 19.0465 23.3376 19.5627 21.7852 19.5627C18.9392 19.5627 16.0414 19.5111 13.1953 19.5627C8.64165 19.666 6.10608 21.7308 5.0194 26.1704C4.29495 29.0612 4.45019 32.0037 5.07115 34.9462C5.1229 34.5332 5.1229 34.1202 5.17464 33.7072C5.58862 29.1129 8.12419 26.0671 12.3674 25.1379C13.6093 24.8798 14.8512 24.7766 16.1449 24.7766C18.4217 24.7249 20.7503 24.7766 23.0272 24.7249C26.5459 24.6733 28.9263 22.7117 29.7542 19.4595C31.0479 14.4005 27.6326 9.96094 22.4062 9.96094Z" fill="white"/>
</svg>
