<svg width="597" height="180" viewBox="0 0 597 180" fill="none" xmlns="http://www.w3.org/2000/svg">
<path d="M160.285 0C110.72 0 61.1549 0 11.3432 0H0C14.7955 13.3333 27.1252 24.9383 40.1945 35.8025C44.14 39.0123 50.0582 41.4815 55.2367 41.7284C88.7732 41.9753 122.31 41.7284 155.846 41.9753C166.45 41.9753 172.368 47.9012 172.121 56.7901C172.121 65.1852 167.19 69.1358 156.093 69.1358C135.626 69.1358 115.159 68.8889 94.6915 69.3827C61.8947 70.1235 43.8934 84.9383 36.0025 116.79C30.824 137.778 31.8104 158.765 36.2491 180C36.4957 177.037 36.4957 174.074 36.7423 171.111C39.948 138.025 57.9492 116.049 88.28 109.383C97.1574 107.407 106.281 106.914 115.159 106.667C131.68 106.173 147.955 106.914 164.477 106.42C189.629 105.926 206.891 92.0988 212.809 68.642C222.18 31.8519 197.767 0 160.285 0ZM188.397 40L185.191 57.284L181.985 40L167.19 36.7901L181.985 33.5802L185.191 16.2963L188.397 33.5802L203.192 36.7901L188.397 40Z" fill="white"/>
<path d="M289.499 55.8025C285.06 51.3581 278.649 51.605 275.443 51.605H275.196C274.95 51.605 274.703 51.605 274.457 51.605C273.963 51.605 258.182 51.605 253.496 51.605C252.51 51.605 251.524 52.0988 250.784 52.8396C250.044 53.5803 249.551 54.568 249.551 55.5556C249.551 57.7778 251.277 59.5062 253.496 59.5062C261.634 59.5062 273.717 59.5062 274.21 59.5062C274.457 59.5062 274.95 59.5062 275.443 59.5062C277.416 59.5062 281.854 59.5062 283.827 61.4816C284.813 62.4692 285.307 63.9507 285.307 65.926C285.307 70.3704 284.074 70.8643 277.169 71.605C273.47 72.0988 268.538 72.8396 264.1 75.3087C249.551 83.21 249.551 96.0495 249.551 103.704V104.445C249.551 106.667 251.277 108.395 253.496 108.395C254.483 108.395 255.469 107.901 256.209 107.161C256.949 106.42 257.442 105.432 257.442 104.445V103.457C257.442 96.2964 257.442 87.6544 268.045 81.9754C271.251 80.247 274.95 79.7532 278.402 79.2593C284.567 78.2717 293.198 77.284 293.198 65.926C293.198 61.7285 291.965 58.2717 289.499 55.8025Z" fill="white"/>
<path d="M376.055 77.7775C374.576 74.8145 372.603 72.5923 370.137 70.8639C367.671 69.3824 364.712 68.3948 361.26 68.3948C358.547 68.3948 355.835 68.8886 353.862 70.3701C351.643 71.6047 349.916 73.333 348.93 75.3084V55.8022C348.93 55.3084 348.93 55.0614 348.683 54.5676C348.683 54.3207 348.437 54.0738 348.19 53.58C347.944 53.0861 347.45 52.5923 346.957 52.3454C346.464 52.0985 345.724 51.8516 344.985 51.8516C342.765 51.8516 341.039 53.58 341.039 55.8022V56.0491V56.7898V57.5306V58.5182V59.7528V60.9874V62.4688V63.9503V65.6787V67.4071V69.1355V71.1108V73.0861V75.0614V77.0368V79.0121V81.4812V83.4565V85.4318V87.4071V89.3824V91.3577V93.0861V94.8145V96.5429V98.0244V99.5059V100.74V101.728V102.716V103.457V103.703C341.039 103.95 341.039 104.444 341.039 104.691C341.039 104.938 341.286 105.185 341.286 105.432C341.532 105.926 341.779 106.173 342.025 106.666C342.765 107.407 343.752 107.901 344.985 107.901C346.464 107.901 347.944 106.666 348.437 105.185C348.683 104.691 348.683 104.197 348.683 103.703C348.683 103.21 348.683 102.469 348.683 101.975V100.987C349.916 103.21 351.396 104.938 353.862 106.173C356.081 107.407 358.547 108.148 361.506 108.148C364.959 108.148 367.918 107.407 370.384 105.679C372.849 104.197 374.822 101.728 376.302 98.7651C377.781 95.8022 378.274 92.3454 378.274 88.1479C378.274 83.9503 377.288 80.7405 376.055 77.7775ZM367.178 98.5182C365.205 100.74 362.739 101.975 359.287 101.975C355.835 101.975 353.369 100.74 351.396 98.5182C349.423 96.0491 348.437 92.8392 348.437 88.3948C348.437 83.9503 349.423 80.7405 351.396 78.2713C353.369 76.0491 356.081 74.8145 359.287 74.8145C362.493 74.8145 365.205 76.0491 367.178 78.2713C369.151 80.4935 370.137 83.9503 370.137 88.3948C370.137 92.8392 369.151 96.0491 367.178 98.5182Z" fill="white"/>
<path d="M331.665 72.5924V73.0862V73.3331V73.8269V74.0739V74.5677V75.3084V76.0492V76.7899V77.7776V78.7652V79.7529V80.7405V81.7282V82.9627V84.1973V85.4319V86.6664V87.901V89.1356V90.3702V91.6047V92.8393V93.8269V95.0615V96.0492V97.0368V98.0245V99.0121V99.9998V100.741V101.481V102.222V102.716V103.21V103.703V103.95C331.665 104.197 331.665 104.197 331.665 104.444C331.665 104.691 331.665 104.938 331.418 105.432C331.172 105.926 330.925 106.42 330.432 106.913C329.939 107.407 329.446 107.654 328.952 107.901C328.459 108.148 328.213 108.148 327.719 108.148C327.473 108.148 327.226 108.148 326.98 107.901C326.487 107.654 325.747 107.407 325.5 107.16C325.007 106.666 324.514 106.173 324.514 105.432C324.514 104.938 324.267 104.691 324.267 104.197V101.234C323.034 103.457 321.308 105.185 319.335 106.42C317.363 107.654 314.897 108.148 312.184 108.148C303.06 108.148 298.375 102.963 298.375 92.8393V72.8393C298.375 72.5924 298.375 72.5924 298.375 72.3455C298.375 72.0985 298.375 72.0986 298.375 71.8516C298.375 71.6047 298.622 71.1109 298.868 70.864L299.115 70.6171C299.361 70.1232 299.608 69.8763 300.101 69.6294C300.348 69.3825 300.841 69.1356 301.088 69.1356C301.334 69.1356 301.581 68.8887 301.827 68.8887C302.32 68.8887 302.567 68.8887 303.06 68.8887C303.06 68.8887 303.06 68.8887 303.307 68.8887C303.8 68.8887 304.047 69.1356 304.54 69.3825C304.786 69.6294 305.033 69.8763 305.526 70.1232C305.773 70.3702 306.019 70.6171 306.266 71.1109C306.513 71.3578 306.513 71.8516 306.513 72.0986C306.513 72.3455 306.513 72.5924 306.513 72.8393V73.0862V93.0862C306.513 96.0492 307.252 98.5183 308.485 99.9998C309.718 101.481 311.691 102.222 314.403 102.222C317.363 102.222 319.829 101.234 321.555 99.259C323.281 97.2837 324.267 94.5677 324.267 91.3578V73.0862C324.267 72.8393 324.267 72.5924 324.267 72.3455C324.514 71.6047 324.76 70.864 325.5 70.3702C325.993 69.8763 326.733 69.3825 327.719 69.3825C327.966 69.3825 328.213 69.3825 328.459 69.3825C328.952 69.3825 329.199 69.3825 329.692 69.6294C330.925 70.1232 331.912 71.1109 332.405 72.3455C331.418 71.8516 331.665 72.3455 331.665 72.5924Z" fill="white"/>
<path d="M418.469 56.2962C418.469 58.2715 416.743 59.9999 414.524 59.9999C412.304 59.9999 410.578 58.2715 410.578 56.2962C410.578 56.0492 410.578 55.8023 410.578 55.5554C410.578 55.3085 410.578 55.3085 410.578 55.0616C411.071 53.3332 412.551 52.0986 414.277 52.0986C416.003 52.0986 417.729 53.3332 417.976 55.0616C417.976 55.3085 417.976 55.3085 417.976 55.5554C418.469 55.8023 418.469 56.0492 418.469 56.2962Z" fill="white"/>
<path d="M418.469 73.086C418.469 73.333 418.469 73.333 418.469 73.5799V74.0737V75.0614V76.2959V77.5305V79.012V80.7404V82.4688V84.4441V86.4194V88.3947V90.37V92.3453V93.8268V95.5552V97.2836V98.7651V100.247V101.481V102.469V103.21V103.703C418.469 104.444 418.469 104.938 418.222 105.432C417.976 105.926 417.729 106.419 417.236 106.913C416.496 107.654 415.51 107.901 414.524 107.901C413.537 107.901 412.551 107.407 411.811 106.666C411.318 106.172 410.825 105.185 410.578 104.444C410.578 103.95 410.578 103.456 410.578 102.963V102.222V101.234V99.9996V98.7651V97.2836V95.5552V93.8268V91.8515V89.8762V87.9009V85.9256V83.9502V81.9749V80.2465V79.012V77.5305V76.2959V75.0614V74.0737V73.333V73.086C410.578 72.3453 410.578 71.8515 410.825 71.1107C411.318 70.37 411.811 69.6293 412.551 69.1354C413.044 68.8885 413.537 68.8885 414.03 68.6416C415.017 68.6416 416.25 68.8885 416.99 69.6293C417.236 69.8762 417.483 70.1231 417.729 70.37C417.729 70.6169 417.976 70.6169 417.976 70.8638C417.976 71.1107 418.222 71.3577 418.222 71.3577C418.469 71.6046 418.469 72.0984 418.469 72.3453C418.469 72.5922 418.469 72.8391 418.469 73.086Z" fill="white"/>
<path d="M402.685 104.691C402.685 105.679 402.438 106.667 401.452 107.161C400.712 107.901 399.479 107.901 398.493 107.901C397.506 107.901 396.52 107.901 395.534 107.901C394.547 107.901 393.561 107.654 392.575 107.407C392.081 107.161 391.588 107.161 391.095 106.914C390.848 106.914 390.602 106.667 390.355 106.667C390.109 106.667 390.109 106.42 389.862 106.42C389.122 105.926 388.629 105.432 387.889 104.938C387.396 104.444 386.903 103.704 386.41 102.963C385.917 102.222 385.67 101.482 385.423 100.741V100.494C384.684 97.7778 384.684 95.0618 384.684 92.3457V58.0247C384.684 56.7901 384.684 55.3087 385.423 54.321C386.163 53.0864 387.396 52.3457 388.876 52.3457C390.355 52.3457 391.588 53.3334 392.081 54.5679C392.575 55.5556 392.575 56.5432 392.575 57.7778C392.575 69.6297 392.575 81.4815 392.575 93.3334C392.575 94.8148 392.575 96.5432 393.068 98.0247C393.561 99.5062 394.547 100.988 396.027 101.481C397.506 102.222 399.479 101.728 400.959 102.716C402.192 102.469 402.685 103.704 402.685 104.691Z" fill="white"/>
<path d="M465.567 52.0983V51.6045L463.594 52.3452C462.115 52.8391 460.882 53.8267 459.649 55.0613C458.169 56.7897 457.429 58.765 457.429 61.728C457.429 63.2094 457.676 66.6662 457.676 66.6662V66.9131C457.676 69.6292 458.169 85.9255 457.676 91.6045C457.183 96.0489 452.991 100.74 447.073 100.74C441.154 100.74 436.469 96.7897 436.469 91.8514V72.3452C436.469 70.123 434.743 68.3946 432.524 68.3946C430.304 68.3946 428.578 70.123 428.578 72.3452V91.8514C428.578 100.987 436.716 108.395 446.826 108.395C456.443 108.395 464.334 101.234 465.32 92.0983C465.567 87.407 465.567 53.3329 465.567 52.0983Z" fill="white"/>
<path d="M555.328 72.0988C555.328 73.8272 554.095 75.0617 552.615 75.3086C552.122 75.3086 551.875 75.3086 551.382 75.5555C551.136 75.5555 550.889 75.5555 550.642 75.5555C543.738 76.2963 540.286 79.7531 540.286 86.1728V103.951C540.286 106.173 538.559 107.901 536.34 107.901C534.121 107.901 532.395 106.173 532.395 103.951V72.5926C532.395 71.6049 532.888 70.6173 533.627 69.8765C534.614 68.8889 536.34 68.642 537.573 69.1358C538.066 69.3827 538.559 69.6296 539.053 70.1234C539.053 70.1234 539.053 70.1234 539.053 70.3704C539.299 70.8642 539.546 71.1111 539.546 71.6049C539.792 72.3457 539.792 73.0864 539.792 74.0741V76.2963C540.779 74.0741 542.505 72.0988 544.478 70.8642C546.204 69.8765 548.423 69.1358 550.889 68.8889C551.629 68.8889 552.369 68.642 552.862 69.1358C553.355 69.3827 553.848 69.6296 554.095 70.1234C555.081 70.6173 555.328 71.358 555.328 72.0988Z" fill="white"/>
<path d="M593.056 68.8885C590.837 68.8885 589.111 70.6169 589.111 72.8391V75.8021C587.878 73.5799 586.398 71.8515 583.932 70.6169C581.713 69.3823 579.247 68.6416 576.288 68.6416C572.836 68.6416 569.876 69.3823 567.411 71.1107C564.945 72.5922 562.972 75.0614 561.492 78.0243C560.013 80.9873 559.52 84.4441 559.52 88.6416C559.52 92.5922 560.259 96.2959 561.492 99.2589C562.972 102.222 564.698 104.444 567.411 106.172C569.876 107.654 572.589 108.395 575.795 108.642H576.534C579.247 108.642 581.713 107.901 583.686 106.666C585.905 105.432 587.631 103.703 588.618 101.728V104.691C588.618 106.913 590.344 108.642 592.563 108.642C594.782 108.642 596.508 106.913 596.508 104.691V72.5922C597.002 70.6169 595.276 68.8885 593.056 68.8885ZM586.398 98.5182C584.425 100.74 581.713 101.975 578.507 101.975C575.302 101.975 572.589 100.74 570.616 98.5182C568.643 96.2959 567.657 92.8391 567.657 88.3947C567.657 83.9502 568.643 80.4935 570.616 78.2712C572.589 76.049 575.302 74.8144 578.507 74.8144C581.713 74.8144 584.425 76.049 586.398 78.2712C588.371 80.7404 589.357 83.9502 589.357 88.3947C589.357 92.8391 588.371 96.049 586.398 98.5182Z" fill="white"/>
<path d="M522.53 71.6053C522.53 71.8522 522.53 72.0991 522.53 72.0991C522.53 73.0867 521.79 73.8275 521.05 74.3213C520.557 74.5682 520.31 74.5682 519.817 74.5682H518.831H517.105H515.132H513.159H511.433H510.2H509.707V93.5806C509.707 98.7658 511.68 101.235 515.872 101.235H516.118C517.844 101.235 519.324 102.716 519.324 104.445C519.324 105.926 518.338 107.161 516.858 107.655C516.365 107.655 515.872 107.902 515.378 107.655C510.94 107.408 507.734 106.173 505.515 103.951C503.049 101.482 502.062 97.7781 502.062 93.0867V74.3213H500.583H498.117C497.87 74.3213 497.87 74.3213 497.624 74.3213C497.131 74.3213 496.884 74.3213 496.391 74.3213C495.898 74.3213 495.651 74.0744 495.158 73.8275C494.665 73.3337 494.172 72.8398 493.925 72.0991C493.678 70.8645 494.171 69.383 495.404 68.8892C495.651 68.6423 496.144 68.6423 496.391 68.3954C496.637 68.3954 496.637 68.3954 496.884 68.3954H501.569V60.2472C501.569 60.2472 501.569 60.2472 501.569 60.0003V58.7658V56.5435C501.569 56.0497 501.569 55.309 501.569 54.8151C501.569 54.3213 501.816 53.8275 502.309 53.3337C502.309 53.0867 502.556 53.0867 502.802 52.8398C503.049 52.5929 503.049 52.5929 503.295 52.346C503.542 52.0991 504.035 51.8522 504.282 51.8522C504.775 51.6053 505.515 51.6053 506.008 51.8522C507.241 51.8522 508.227 52.5929 508.72 53.5806C508.967 54.3213 509.214 55.0621 509.214 55.5559V56.7904V58.5188V60.7411V62.9633V65.1855V66.9139V68.1485V68.3954H518.831C519.817 68.3954 520.803 68.8892 521.297 69.63C521.543 69.8769 521.79 70.3707 521.79 70.8645C522.53 71.3583 522.53 71.3583 522.53 71.6053Z" fill="white"/>
<path d="M492.447 104.938C492.447 105.926 492.2 106.914 491.214 107.408C490.474 108.148 489.241 108.148 488.254 108.148C487.268 108.148 486.282 108.148 485.295 108.148C484.309 108.148 483.323 107.901 482.336 107.655C481.843 107.408 481.35 107.408 480.857 107.161C480.61 107.161 480.364 106.914 480.117 106.914C479.87 106.914 479.87 106.667 479.624 106.667C478.884 106.173 478.391 105.679 477.651 105.185C477.158 104.692 476.665 103.951 476.171 103.21C475.678 102.469 475.432 101.729 475.185 100.988V100.741C474.445 98.0249 474.445 95.3088 474.445 92.5928C474.445 81.2348 474.445 69.8767 474.445 58.2718C474.445 57.0372 474.445 55.5557 475.185 54.5681C475.925 53.3335 477.158 52.5928 478.637 52.5928C480.117 52.5928 481.35 53.5804 481.843 54.815C482.336 55.8027 482.336 56.7903 482.336 58.0249C482.336 69.8767 482.336 81.7286 482.336 93.5804C482.336 95.0619 482.336 96.7903 482.829 98.2718C483.323 99.7533 484.309 101.235 485.789 101.729C487.268 102.469 489.241 101.975 490.72 102.963C491.953 102.716 492.447 103.704 492.447 104.938Z" fill="white"/>
<path d="M193.083 143.21V145.926H185.686V166.173H182.48V145.926H175.082V143.21H193.083Z" fill="white"/>
<path d="M196.533 149.877V160.494C196.533 161.729 196.779 162.716 197.273 163.457C197.766 164.198 198.752 164.445 199.739 164.445C200.478 164.445 201.465 164.198 202.204 163.951C202.944 163.457 203.684 162.963 204.177 162.223V150.124H207.136V166.42H205.41C204.917 166.42 204.67 166.173 204.67 165.926V163.951C203.931 164.692 203.191 165.432 202.204 165.926C201.218 166.42 200.232 166.667 199.245 166.667C198.259 166.667 197.519 166.42 196.779 166.173C196.04 165.926 195.546 165.433 195.053 164.939C194.56 164.445 194.313 163.704 194.067 162.963C193.82 162.223 193.82 161.482 193.82 160.494V150.124H196.533V149.877Z" fill="white"/>
<path d="M231.303 166.173C230.81 166.173 230.563 165.926 230.563 165.679L230.316 163.704C229.577 164.445 228.837 165.186 227.85 165.679C226.864 166.173 225.878 166.42 224.891 166.42C223.905 166.42 223.165 166.173 222.425 165.926C221.686 165.679 220.946 164.939 220.453 164.445C219.96 163.704 219.466 162.963 219.22 161.729C218.973 160.741 218.727 159.507 218.727 158.025C218.727 156.791 218.973 155.803 219.22 154.568C219.466 153.334 219.96 152.593 220.699 151.852C221.192 151.112 221.932 150.618 222.919 150.124C223.905 149.63 224.891 149.383 225.878 149.383C226.864 149.383 227.604 149.63 228.344 149.877C229.083 150.124 229.577 150.618 230.316 151.358V142.223H233.276V165.926H231.303V166.173ZM225.631 164.198C226.618 164.198 227.357 163.951 228.097 163.457C228.837 162.963 229.33 162.47 230.07 161.729V153.828C229.577 153.087 229.083 152.593 228.344 152.346C227.604 152.099 227.111 151.852 226.371 151.852C224.891 151.852 223.658 152.346 222.919 153.581C222.179 154.568 221.686 156.297 221.686 158.272C221.686 159.26 221.686 160.247 221.932 160.988C222.179 161.729 222.425 162.47 222.672 162.963C222.919 163.457 223.412 163.704 223.905 163.951C224.398 163.951 225.138 164.198 225.631 164.198Z" fill="white"/>
<path d="M245.113 149.63C246.099 149.63 247.085 149.877 247.825 150.124C248.565 150.371 249.305 150.864 250.044 151.605C250.538 152.346 251.031 153.087 251.524 153.827C251.771 154.815 252.017 155.803 252.017 157.037C252.017 157.531 252.017 157.778 251.771 158.025C251.771 158.272 251.524 158.272 251.277 158.272H240.427C240.427 159.26 240.674 160.247 240.921 160.988C241.167 161.729 241.414 162.469 241.907 162.963C242.4 163.457 242.893 163.951 243.633 164.198C244.373 164.445 244.866 164.692 245.606 164.692C246.346 164.692 246.839 164.692 247.579 164.445C248.072 164.198 248.565 164.198 248.811 163.951C249.305 163.704 249.551 163.457 249.798 163.457C250.044 163.21 250.291 163.21 250.538 163.21C250.784 163.21 251.031 163.21 251.031 163.457L251.771 164.445C251.524 164.939 251.031 165.185 250.538 165.679C250.044 165.926 249.551 166.173 249.058 166.42C248.565 166.667 247.825 166.667 247.332 166.914C246.839 166.914 246.099 167.161 245.606 167.161C244.373 167.161 243.386 166.914 242.4 166.667C241.414 166.173 240.674 165.679 239.934 164.939C239.194 164.198 238.701 163.21 238.208 162.222C237.715 161.235 237.715 160 237.715 158.519C237.715 157.284 237.961 156.297 238.208 155.309C238.455 154.321 238.948 153.581 239.688 152.84C240.427 152.099 241.167 151.605 242.153 151.111C242.893 149.877 243.88 149.63 245.113 149.63ZM245.113 151.852C243.633 151.852 242.647 152.346 241.907 153.087C241.167 153.827 240.674 155.062 240.427 156.297H249.305C249.305 155.556 249.305 155.062 249.058 154.568C248.811 154.074 248.565 153.581 248.318 153.087C248.072 152.593 247.579 152.346 247.085 152.099C246.346 151.852 245.606 151.852 245.113 151.852Z" fill="white"/>
<path d="M265.578 152.593C265.332 152.84 265.332 152.84 265.085 152.84C264.838 152.84 264.838 152.84 264.592 152.593C264.345 152.593 264.099 152.346 263.852 152.099C263.605 151.852 263.112 151.852 262.866 151.605C262.372 151.605 261.879 151.358 261.386 151.358C260.893 151.358 260.4 151.358 260.153 151.605C259.66 151.605 259.413 151.852 259.167 152.099C258.92 152.346 258.674 152.593 258.427 152.84C258.18 153.087 258.18 153.334 258.18 153.828C258.18 154.321 258.18 154.568 258.427 154.815C258.674 155.062 258.92 155.309 259.413 155.556C259.907 155.803 260.153 156.05 260.646 156.05C261.139 156.05 261.633 156.297 262.126 156.544C262.619 156.791 263.112 157.037 263.605 157.037C264.099 157.284 264.592 157.531 264.838 157.778C265.332 158.025 265.578 158.519 265.825 159.013C266.071 159.507 266.071 160 266.071 160.741C266.071 161.482 265.825 162.223 265.578 162.716C265.332 163.457 264.838 163.951 264.345 164.445C263.852 164.939 263.112 165.186 262.372 165.433C261.633 165.679 260.646 165.926 259.66 165.926C258.427 165.926 257.441 165.679 256.454 165.433C255.468 164.939 254.728 164.692 253.988 163.951L254.728 162.963C254.728 162.716 254.975 162.716 254.975 162.716C254.975 162.716 255.221 162.716 255.468 162.716C255.714 162.716 255.961 162.716 255.961 162.963C256.208 163.21 256.454 163.21 256.701 163.457C256.947 163.704 257.441 163.704 257.687 163.951C258.18 164.198 258.674 164.198 259.413 164.198C259.907 164.198 260.4 164.198 260.893 163.951C261.386 163.704 261.633 163.704 261.879 163.457C262.126 163.21 262.372 162.963 262.619 162.716C262.866 162.47 262.866 161.976 262.866 161.729C262.866 161.235 262.866 160.988 262.619 160.494C262.372 160.247 262.126 160 261.633 159.753C261.139 159.507 260.893 159.26 260.153 159.26C259.66 159.013 259.167 159.013 258.674 158.766C258.18 158.519 257.687 158.519 257.194 158.272C256.701 158.025 256.208 157.778 255.961 157.531C255.468 157.284 255.221 156.791 254.975 156.297C254.728 155.803 254.728 155.309 254.728 154.568C254.728 153.828 254.975 153.334 255.221 152.84C255.468 152.346 255.961 151.852 256.454 151.358C256.947 150.865 257.441 150.618 258.18 150.371C258.92 150.124 259.66 149.877 260.646 149.877C261.633 149.877 262.619 150.124 263.605 150.371C264.345 150.618 265.085 151.112 265.825 151.852L265.578 152.593Z" fill="white"/>
<path d="M271.004 171.852V150.124H272.73C273.223 150.124 273.47 150.371 273.47 150.618L273.716 152.593C274.456 151.852 275.196 151.112 276.182 150.618C277.169 150.124 278.155 149.877 279.388 149.877C280.374 149.877 281.114 150.124 281.854 150.371C282.594 150.618 283.334 151.358 283.827 151.852C284.32 152.346 284.813 153.334 285.06 154.568C285.306 155.556 285.553 156.791 285.553 158.272C285.553 159.507 285.306 160.494 285.06 161.729C284.813 162.963 284.32 163.704 283.58 164.445C283.087 165.186 282.347 165.679 281.361 166.173C280.374 166.667 279.388 166.914 278.402 166.914C277.415 166.914 276.429 166.667 275.936 166.42C275.196 166.173 274.703 165.679 273.963 164.939V172.099H271.004V171.852ZM278.155 152.099C277.169 152.099 276.429 152.346 275.689 152.84C274.949 153.334 274.456 153.828 273.716 154.568V162.47C274.21 163.21 274.703 163.704 275.443 163.951C276.182 164.198 276.676 164.445 277.415 164.445C278.895 164.445 280.128 163.951 280.868 162.716C281.607 161.729 282.101 160 282.101 158.025C282.101 157.037 282.101 156.05 281.854 155.309C281.607 154.568 281.361 153.828 281.114 153.334C280.868 152.84 280.374 152.593 279.881 152.346C279.388 152.099 278.895 152.099 278.155 152.099Z" fill="white"/>
<path d="M295.909 149.63C296.896 149.63 297.882 149.877 298.622 150.124C299.362 150.371 300.102 150.864 300.841 151.605C301.334 152.346 301.828 153.087 302.321 153.827C302.567 154.815 302.814 155.803 302.814 157.037C302.814 157.531 302.814 157.778 302.567 158.025C302.567 158.272 302.321 158.272 302.074 158.272H291.224C291.224 159.26 291.471 160.247 291.717 160.988C291.964 161.729 292.211 162.469 292.704 162.963C293.197 163.457 293.69 163.951 294.43 164.198C295.17 164.445 295.663 164.692 296.403 164.692C297.142 164.692 297.636 164.692 298.375 164.445C298.869 164.198 299.362 164.198 299.608 163.951C300.102 163.704 300.348 163.457 300.595 163.457C300.841 163.21 301.088 163.21 301.334 163.21C301.581 163.21 301.828 163.21 301.828 163.457L302.567 164.445C302.321 164.939 301.828 165.185 301.334 165.679C300.841 165.926 300.348 166.173 299.855 166.42C299.362 166.667 298.622 166.667 298.129 166.914C297.636 166.914 296.896 167.161 296.403 167.161C295.17 167.161 294.183 166.914 293.197 166.667C292.211 166.173 291.471 165.679 290.731 164.939C289.991 164.198 289.498 163.21 289.005 162.222C288.512 161.235 288.512 160 288.512 158.519C288.512 157.284 288.758 156.297 289.005 155.309C289.251 154.321 289.745 153.581 290.484 152.84C291.224 152.099 291.964 151.605 292.95 151.111C293.69 149.877 294.677 149.63 295.909 149.63ZM295.909 151.852C294.43 151.852 293.444 152.346 292.704 153.087C291.964 153.827 291.471 155.062 291.224 156.297H300.102C300.102 155.556 300.102 155.062 299.855 154.568C299.608 154.074 299.362 153.581 299.115 153.087C298.869 152.593 298.375 152.346 297.882 152.099C297.142 151.852 296.649 151.852 295.909 151.852Z" fill="white"/>
<path d="M312.679 149.63C313.418 149.63 314.158 149.63 314.651 149.877C315.144 150.124 315.884 150.371 316.377 150.618H320.816V151.605C320.816 151.852 320.569 152.099 320.076 152.346L318.35 152.593C318.597 153.334 318.843 154.074 318.843 154.815C318.843 155.556 318.597 156.297 318.35 157.037C318.104 157.778 317.61 158.272 317.117 158.766C316.624 159.26 315.884 159.506 315.144 159.753C314.405 160 313.665 160.247 312.679 160.247C311.939 160.247 311.199 160.247 310.459 160C310.213 160.247 309.966 160.494 309.719 160.741C309.473 160.988 309.473 161.235 309.473 161.482C309.473 161.976 309.719 162.222 309.966 162.469C310.213 162.716 310.706 162.716 311.199 162.963C311.692 162.963 312.185 163.21 312.925 163.21H314.898C315.638 163.21 316.131 163.21 316.871 163.457C317.61 163.457 318.104 163.704 318.597 163.951C319.09 164.198 319.583 164.692 319.83 165.185C320.076 165.679 320.323 166.173 320.323 167.161C320.323 167.901 320.076 168.642 319.83 169.136C319.583 169.63 319.09 170.371 318.35 170.864C317.61 171.358 316.871 171.852 315.884 172.099C314.898 172.346 313.911 172.593 312.679 172.593C311.446 172.593 310.459 172.593 309.473 172.346C308.486 172.099 307.747 171.852 307.253 171.358C306.76 170.864 306.267 170.618 306.021 169.877C305.774 169.383 305.527 168.889 305.527 168.148C305.527 167.408 305.774 166.667 306.267 166.173C306.76 165.679 307.5 165.185 308.24 164.939C307.747 164.692 307.5 164.445 307.253 164.198C307.007 163.951 306.76 163.457 306.76 162.716C306.76 162.469 306.76 162.222 307.007 161.976C307.007 161.729 307.253 161.482 307.5 161.235C307.747 160.988 307.993 160.741 308.24 160.494C308.486 160.247 308.733 160 309.226 160C308.486 159.506 307.747 159.013 307.253 158.272C306.76 157.531 306.514 156.543 306.514 155.556C306.514 154.815 306.76 154.074 307.007 153.334C307.253 152.593 307.747 152.099 308.24 151.605C308.733 151.111 309.473 150.864 310.213 150.618C310.952 149.877 311.692 149.63 312.679 149.63ZM317.61 167.161C317.61 166.667 317.61 166.42 317.364 166.173C317.117 165.926 316.871 165.679 316.377 165.679C315.884 165.432 315.638 165.432 315.144 165.432C314.651 165.432 314.158 165.432 313.665 165.432H311.939C311.446 165.432 310.706 165.432 310.213 165.185C309.719 165.432 309.226 165.926 308.733 166.173C308.24 166.667 308.24 167.161 308.24 167.655C308.24 167.901 308.24 168.395 308.486 168.642C308.733 168.889 308.98 169.136 309.226 169.383C309.719 169.63 310.213 169.877 310.706 169.877C311.199 170.124 311.939 170.124 312.679 170.124C313.418 170.124 314.158 170.124 314.651 169.877C315.144 169.63 315.884 169.63 316.131 169.383C316.624 169.136 316.871 168.889 317.117 168.395C317.61 167.901 317.61 167.655 317.61 167.161ZM312.679 158.272C313.172 158.272 313.665 158.272 314.158 158.025C314.651 157.778 314.898 157.531 315.391 157.284C315.638 157.037 315.884 156.543 316.131 156.297C316.377 155.803 316.377 155.556 316.377 155.062C316.377 154.074 316.131 153.334 315.391 152.593C314.898 152.099 313.911 151.605 312.679 151.605C311.446 151.605 310.706 151.852 309.966 152.593C309.473 153.087 308.98 154.074 308.98 155.062C308.98 155.556 308.98 156.05 309.226 156.297C309.473 156.79 309.719 157.037 309.966 157.284C310.213 157.531 310.706 157.778 310.952 158.025C311.446 158.272 311.939 158.272 312.679 158.272Z" fill="white"/>
<path d="M326.736 149.877V160.494C326.736 161.729 326.983 162.716 327.476 163.457C327.969 164.198 328.956 164.445 329.942 164.445C330.682 164.445 331.668 164.198 332.408 163.951C333.148 163.457 333.888 162.963 334.381 162.223V150.124H337.34V166.42H335.614C335.121 166.42 334.874 166.173 334.874 165.926L334.627 164.198C333.888 164.939 333.148 165.679 332.161 166.173C331.175 166.667 330.189 166.914 329.202 166.914C328.216 166.914 327.476 166.667 326.736 166.42C325.997 166.173 325.503 165.679 325.01 165.186C324.517 164.692 324.271 163.951 324.024 163.21C323.777 162.47 323.777 161.729 323.777 160.741V150.371H326.736V149.877Z" fill="white"/>
<path d="M349.421 149.63C350.408 149.63 351.394 149.877 352.134 150.124C352.873 150.371 353.613 150.864 354.353 151.605C354.846 152.346 355.339 153.087 355.833 153.827C356.079 154.815 356.326 155.803 356.326 157.037C356.326 157.531 356.326 157.778 356.079 158.025C356.079 158.272 355.833 158.272 355.586 158.272H344.736C344.736 159.26 344.983 160.247 345.229 160.988C345.476 161.729 345.722 162.469 346.215 162.963C346.709 163.457 347.202 163.951 347.942 164.198C348.681 164.445 349.175 164.692 349.914 164.692C350.654 164.692 351.147 164.692 351.887 164.445C352.38 164.198 352.873 164.198 353.12 163.951C353.613 163.704 353.86 163.457 354.106 163.457C354.353 163.21 354.6 163.21 354.846 163.21C355.093 163.21 355.339 163.21 355.339 163.457L356.079 164.445C355.833 164.939 355.339 165.185 354.846 165.679C354.353 165.926 353.86 166.173 353.367 166.42C352.873 166.667 352.134 166.667 351.641 166.914C351.147 166.914 350.408 167.161 349.914 167.161C348.681 167.161 347.695 166.914 346.709 166.667C345.722 166.173 344.983 165.679 344.243 164.939C343.503 164.198 343.01 163.21 342.517 162.222C342.023 161.235 342.023 160 342.023 158.519C342.023 157.284 342.27 156.297 342.517 155.309C342.763 154.321 343.256 153.581 343.996 152.84C344.736 152.099 345.476 151.605 346.462 151.111C347.202 149.877 348.188 149.63 349.421 149.63ZM349.421 151.852C347.942 151.852 346.955 152.346 346.215 153.087C345.476 153.827 344.983 155.062 344.736 156.297H353.613C353.613 155.556 353.613 155.062 353.367 154.568C353.12 154.074 352.873 153.581 352.627 153.087C352.38 152.593 351.887 152.346 351.394 152.099C350.654 151.852 350.161 151.852 349.421 151.852Z" fill="white"/>
<path d="M379.506 166.173H378.273C378.026 166.173 377.78 166.173 377.533 165.926C377.287 165.926 377.287 165.679 377.287 165.432L377.04 163.95C376.547 164.444 376.3 164.691 375.807 164.938C375.314 165.185 375.067 165.432 374.574 165.679C374.081 165.926 373.588 165.926 373.094 166.173C372.601 166.173 372.108 166.42 371.368 166.42C370.629 166.42 370.135 166.42 369.642 166.173C369.149 165.926 368.656 165.679 368.163 165.432C367.669 165.185 367.423 164.691 367.176 164.197C366.93 163.703 366.93 162.963 366.93 162.222C366.93 161.481 367.176 160.987 367.423 160.247C367.669 159.753 368.409 159.012 369.149 158.765C369.889 158.271 370.875 158.024 372.355 157.531C373.588 157.284 375.067 157.037 377.04 157.037V155.802C377.04 154.568 376.793 153.58 376.3 152.839C375.807 152.099 375.067 151.852 373.834 151.852C373.094 151.852 372.601 151.852 372.108 152.099C371.615 152.345 371.122 152.592 370.875 152.592C370.629 152.592 370.135 153.086 369.889 153.086C369.642 153.333 369.396 153.333 369.149 153.333C368.902 153.333 368.902 153.333 368.656 153.086C368.409 153.086 368.409 152.839 368.409 152.592L367.916 151.605C368.902 150.617 369.889 150.123 370.875 149.629C371.861 149.136 373.094 148.889 374.327 148.889C375.314 148.889 376.054 149.136 376.793 149.383C377.533 149.629 378.026 150.123 378.519 150.617C379.013 151.111 379.259 151.852 379.506 152.592C379.752 153.333 379.999 154.074 379.999 155.062V166.173H379.506ZM372.108 164.444C372.601 164.444 373.094 164.444 373.588 164.197C374.081 164.197 374.327 163.95 374.821 163.703C375.067 163.457 375.56 163.21 375.807 162.963C376.054 162.716 376.547 162.469 376.793 161.975V158.518C375.56 158.518 374.327 158.518 373.341 158.765C372.355 159.012 371.615 159.259 371.122 159.506C370.629 159.753 370.135 160 369.889 160.494C369.642 160.741 369.396 161.234 369.396 161.728C369.396 162.222 369.396 162.469 369.642 162.963C369.889 163.21 369.889 163.457 370.135 163.703C370.382 163.95 370.629 163.95 370.875 164.197C371.122 164.444 371.861 164.444 372.108 164.444Z" fill="white"/>
<path d="M387.889 142.469H384.93V166.172H387.889V142.469Z" fill="white"/>
<path d="M400.711 166.173V149.877H402.437C402.93 149.877 403.177 150.124 403.177 150.371L403.423 152.099C403.917 151.358 404.656 150.864 405.396 150.371C406.136 149.877 407.122 149.63 408.109 149.63C409.095 149.63 410.081 149.877 410.821 150.618C411.561 151.111 412.054 152.099 412.301 153.087C412.547 152.593 412.794 152.099 413.287 151.605C413.78 151.111 414.027 150.864 414.52 150.618C415.013 150.371 415.506 150.124 416 150.124C416.493 149.877 416.986 149.877 417.479 149.877C418.219 149.877 419.205 150.124 419.699 150.371C420.438 150.618 420.931 151.111 421.425 151.605C421.918 152.099 422.164 152.84 422.411 153.581C422.658 154.321 422.904 155.309 422.904 156.297V166.667H419.945V156.297C419.945 155.062 419.699 154.074 419.205 153.334C418.712 152.593 417.726 152.346 416.739 152.346C416.246 152.346 415.753 152.346 415.506 152.593C415.013 152.84 414.767 153.087 414.274 153.334C414.027 153.58 413.78 154.074 413.534 154.568C413.287 155.062 413.287 155.556 413.287 156.297V166.667H410.328V156.297C410.328 155.062 410.081 154.074 409.588 153.334C409.095 152.593 408.355 152.346 407.369 152.346C406.629 152.346 405.889 152.593 405.396 152.84C404.903 153.087 404.163 153.827 403.67 154.321V166.42H400.711V166.173Z" fill="white"/>
<path d="M430.303 149.877V160.494C430.303 161.729 430.549 162.716 431.043 163.457C431.536 164.198 432.522 164.445 433.509 164.445C434.248 164.445 435.235 164.198 435.974 163.951C436.714 163.457 437.454 162.963 437.947 162.223V150.124H440.906V166.42H439.18C438.687 166.42 438.44 166.173 438.44 165.926L438.194 164.198C437.454 164.939 436.714 165.679 435.728 166.173C434.742 166.667 433.755 166.914 432.769 166.914C431.782 166.914 431.043 166.667 430.303 166.42C429.563 166.173 429.07 165.679 428.577 165.186C428.084 164.692 427.837 163.951 427.59 163.21C427.344 162.47 427.344 161.729 427.344 160.741V150.371H430.303V149.877Z" fill="white"/>
<path d="M446.578 166.173V149.877H448.304C448.797 149.877 449.044 150.124 449.044 150.37L449.291 152.099C450.03 151.358 450.77 150.617 451.757 150.124C452.743 149.63 453.729 149.383 454.716 149.383C455.702 149.383 456.442 149.63 457.182 149.877C457.921 150.124 458.415 150.617 458.908 151.111C459.401 151.605 459.648 152.346 459.894 153.087C460.141 153.827 460.141 154.568 460.141 155.556V165.926H457.182V155.556C457.182 154.321 456.935 153.333 456.442 152.593C455.949 151.852 454.962 151.605 453.976 151.605C453.236 151.605 452.25 151.852 451.51 152.099C450.77 152.593 450.03 153.087 449.537 153.827V165.926H446.578V166.173Z" fill="white"/>
<path d="M476.662 166.173C476.169 166.173 475.922 165.926 475.922 165.679L475.676 163.704C474.936 164.445 474.196 165.186 473.21 165.679C472.223 166.173 471.237 166.42 470.251 166.42C469.264 166.42 468.525 166.173 467.785 165.926C467.045 165.679 466.305 164.939 465.812 164.445C465.319 163.704 464.826 162.963 464.579 161.729C464.333 160.741 464.086 159.507 464.086 158.025C464.086 156.791 464.333 155.803 464.579 154.568C464.826 153.334 465.319 152.593 466.059 151.852C466.552 151.112 467.292 150.618 468.278 150.124C469.264 149.63 470.251 149.383 471.237 149.383C472.224 149.383 472.963 149.63 473.703 149.877C474.443 150.124 474.936 150.618 475.676 151.358V142.223H478.635V165.926H476.662V166.173ZM471.237 164.198C472.224 164.198 472.963 163.951 473.703 163.457C474.443 162.963 474.936 162.47 475.676 161.729V153.828C475.183 153.087 474.689 152.593 473.95 152.346C473.21 152.099 472.717 151.852 471.977 151.852C470.497 151.852 469.264 152.346 468.525 153.581C467.785 154.568 467.292 156.297 467.292 158.272C467.292 159.26 467.292 160.247 467.538 160.988C467.785 161.729 468.031 162.47 468.278 162.963C468.525 163.457 469.018 163.704 469.511 163.951C469.758 163.951 470.497 164.198 471.237 164.198Z" fill="white"/>
<path d="M490.472 149.63C491.705 149.63 492.692 149.877 493.678 150.124C494.665 150.618 495.404 151.111 496.144 151.852C496.884 152.593 497.377 153.58 497.624 154.568C497.87 155.556 498.117 156.79 498.117 158.025C498.117 159.26 497.87 160.494 497.624 161.482C497.377 162.469 496.637 163.457 496.144 164.198C495.404 164.939 494.665 165.432 493.678 165.926C492.692 166.42 491.705 166.42 490.472 166.42C489.24 166.42 488.253 166.173 487.267 165.926C486.28 165.432 485.541 164.939 484.801 164.198C484.061 163.457 483.568 162.469 483.321 161.482C483.075 160.494 482.828 159.26 482.828 158.025C482.828 156.79 483.075 155.556 483.321 154.568C483.568 153.58 484.308 152.593 484.801 151.852C485.541 151.111 486.28 150.618 487.267 150.124C488.253 149.877 489.486 149.63 490.472 149.63ZM490.472 164.198C492.199 164.198 493.185 163.704 494.171 162.469C494.911 161.482 495.404 160 495.404 158.025C495.404 156.05 494.911 154.568 494.171 153.581C493.432 152.593 492.199 151.852 490.472 151.852C489.733 151.852 488.993 152.099 488.253 152.346C487.76 152.593 487.267 153.087 486.774 153.581C486.28 154.074 486.034 154.815 485.787 155.556C485.541 156.297 485.541 157.284 485.541 158.272C485.541 159.26 485.541 160 485.787 160.741C486.034 161.482 486.28 162.222 486.774 162.716C487.267 163.21 487.76 163.704 488.253 163.951C488.993 164.198 489.733 164.198 490.472 164.198Z" fill="white"/>
<path d="M521.049 166.173C520.556 166.173 520.309 165.926 520.309 165.679L520.062 163.704C519.323 164.445 518.583 165.186 517.597 165.679C516.61 166.173 515.624 166.42 514.637 166.42C513.651 166.42 512.911 166.173 512.172 165.926C511.432 165.679 510.692 164.939 510.199 164.445C509.706 163.704 509.212 162.963 508.966 161.729C508.719 160.741 508.473 159.507 508.473 158.025C508.473 156.791 508.719 155.803 508.966 154.568C509.212 153.334 509.706 152.593 510.445 151.852C510.939 151.112 511.678 150.618 512.665 150.124C513.651 149.63 514.637 149.383 515.624 149.383C516.61 149.383 517.35 149.63 518.09 149.877C518.83 150.124 519.323 150.618 520.062 151.358V142.223H523.022V165.926H521.049V166.173ZM515.624 164.198C516.61 164.198 517.35 163.951 518.09 163.457C518.83 162.963 519.323 162.47 520.062 161.729V153.828C519.569 153.087 519.076 152.593 518.336 152.346C517.597 152.099 517.103 151.852 516.364 151.852C514.884 151.852 513.651 152.346 512.911 153.581C512.172 154.568 511.678 156.297 511.678 158.272C511.678 159.26 511.678 160.247 511.925 160.988C512.172 161.729 512.418 162.47 512.665 162.963C512.911 163.457 513.404 163.704 513.898 163.951C514.391 163.951 514.884 164.198 515.624 164.198Z" fill="white"/>
<path d="M532.146 144.938C532.146 145.185 532.146 145.432 531.899 145.679C531.899 145.926 531.653 146.173 531.406 146.42C531.159 146.666 530.913 146.666 530.666 146.913C530.42 146.913 530.173 147.16 529.926 147.16C529.68 147.16 529.433 147.16 529.187 146.913C528.94 146.913 528.693 146.666 528.447 146.42C528.2 146.173 528.2 145.926 527.954 145.679C527.954 145.432 527.707 145.185 527.707 144.938C527.707 144.691 527.707 144.444 527.954 144.197C527.954 143.95 528.2 143.703 528.447 143.457C528.693 143.21 528.94 143.21 529.187 142.963C529.433 142.963 529.68 142.716 529.926 142.716C530.173 142.716 530.42 142.716 530.666 142.963C530.913 142.963 531.159 143.21 531.406 143.457C531.653 143.703 531.653 143.95 531.899 144.197C532.146 144.444 532.146 144.691 532.146 144.938ZM531.653 166.173H528.693V149.876H531.653V166.173Z" fill="white"/>
<path d="M542.995 149.63C543.735 149.63 544.474 149.63 544.968 149.877C545.461 150.124 546.201 150.371 546.694 150.618H551.132V151.605C551.132 151.852 550.886 152.099 550.393 152.346L548.667 152.593C548.913 153.334 549.16 154.074 549.16 154.815C549.16 155.556 548.913 156.297 548.667 157.037C548.42 157.778 547.927 158.272 547.434 158.766C546.94 159.26 546.201 159.506 545.461 159.753C544.721 160 543.981 160.247 542.995 160.247C542.255 160.247 541.515 160.247 540.776 160C540.529 160.247 540.282 160.494 540.036 160.741C539.789 160.988 539.789 161.235 539.789 161.482C539.789 161.976 540.036 162.222 540.282 162.469C540.529 162.716 541.022 162.716 541.515 162.963C542.009 162.963 542.502 163.21 543.242 163.21H545.214C545.954 163.21 546.447 163.21 547.187 163.457C547.927 163.457 548.42 163.704 548.913 163.951C549.406 164.198 549.9 164.692 550.146 165.185C550.393 165.679 550.639 166.173 550.639 167.161C550.639 167.901 550.393 168.642 550.146 169.136C549.9 169.63 549.406 170.371 548.667 170.864C547.927 171.358 547.187 171.852 546.201 172.099C545.214 172.346 544.228 172.593 542.995 172.593C541.762 172.593 540.776 172.593 539.789 172.346C538.803 172.099 538.063 171.852 537.57 171.358C537.077 170.864 536.584 170.618 536.337 169.877C536.09 169.383 535.844 168.889 535.844 168.148C535.844 167.408 536.09 166.667 536.584 166.173C537.077 165.679 537.816 165.185 538.556 164.939C538.063 164.692 537.816 164.445 537.57 164.198C537.323 163.951 537.077 163.457 537.077 162.716C537.077 162.469 537.077 162.222 537.323 161.976C537.323 161.729 537.57 161.482 537.816 161.235C538.063 160.988 538.31 160.741 538.556 160.494C538.803 160.247 539.049 160 539.543 160C538.803 159.506 538.063 159.013 537.57 158.272C537.077 157.531 536.83 156.543 536.83 155.556C536.83 154.815 537.077 154.074 537.323 153.334C537.57 152.593 538.063 152.099 538.556 151.605C539.049 151.111 539.789 150.864 540.529 150.618C541.269 149.877 542.009 149.63 542.995 149.63ZM547.927 167.161C547.927 166.667 547.927 166.42 547.68 166.173C547.434 165.926 547.187 165.679 546.694 165.679C546.201 165.432 545.954 165.432 545.461 165.432C544.968 165.432 544.474 165.432 543.981 165.432H542.255C541.762 165.432 541.022 165.432 540.529 165.185C540.036 165.432 539.543 165.926 539.049 166.173C538.556 166.667 538.556 167.161 538.556 167.655C538.556 167.901 538.556 168.395 538.803 168.642C539.049 168.889 539.296 169.136 539.543 169.383C540.036 169.63 540.529 169.877 541.022 169.877C541.515 170.124 542.255 170.124 542.995 170.124C543.735 170.124 544.474 170.124 544.968 169.877C545.461 169.63 546.201 169.63 546.447 169.383C546.94 169.136 547.187 168.889 547.434 168.395C547.927 167.901 547.927 167.655 547.927 167.161ZM542.995 158.272C543.488 158.272 543.981 158.272 544.474 158.025C544.968 157.778 545.214 157.531 545.707 157.284C545.954 157.037 546.201 156.543 546.447 156.297C546.694 155.803 546.694 155.556 546.694 155.062C546.694 154.074 546.447 153.334 545.707 152.593C545.214 152.099 544.228 151.605 542.995 151.605C541.762 151.605 541.022 151.852 540.282 152.593C539.789 153.087 539.296 154.074 539.296 155.062C539.296 155.556 539.296 156.05 539.543 156.297C539.789 156.79 540.036 157.037 540.282 157.284C540.529 157.531 541.022 157.778 541.269 158.025C541.762 158.272 542.255 158.272 542.995 158.272Z" fill="white"/>
<path d="M558.532 144.938C558.532 145.185 558.532 145.432 558.286 145.679C558.286 145.926 558.039 146.173 557.793 146.42C557.546 146.666 557.299 146.666 557.053 146.913C556.806 146.913 556.56 147.16 556.313 147.16C556.067 147.16 555.82 147.16 555.573 146.913C555.327 146.913 555.08 146.666 554.834 146.42C554.587 146.173 554.587 145.926 554.34 145.679C554.34 145.432 554.094 145.185 554.094 144.938C554.094 144.691 554.094 144.444 554.34 144.197C554.34 143.95 554.587 143.703 554.834 143.457C555.08 143.21 555.327 143.21 555.573 142.963C555.82 142.963 556.067 142.716 556.313 142.716C556.56 142.716 556.806 142.716 557.053 142.963C557.299 142.963 557.546 143.21 557.793 143.457C558.039 143.703 558.039 143.95 558.286 144.197C558.286 144.444 558.532 144.691 558.532 144.938ZM557.793 166.173H554.834V149.876H557.793V166.173Z" fill="white"/>
<path d="M568.642 166.42C567.409 166.42 566.423 166.173 565.683 165.432C564.943 164.691 564.697 163.704 564.697 162.222V152.346H562.724C562.478 152.346 562.478 152.346 562.231 152.099C562.231 152.099 561.984 151.852 561.984 151.605V150.617L564.697 150.37L565.437 145.432C565.437 145.185 565.437 145.185 565.683 144.938C565.683 144.938 565.93 144.691 566.176 144.691H567.656V150.37H572.341V152.346H567.656V162.222C567.656 162.963 567.903 163.457 568.149 163.704C568.396 163.951 568.889 164.198 569.382 164.198C569.629 164.198 569.875 164.198 570.122 164.198C570.369 164.198 570.615 163.951 570.615 163.951C570.862 163.951 570.862 163.704 571.108 163.704H571.355C571.601 163.704 571.601 163.704 571.848 163.951L572.588 165.432C572.095 165.926 571.601 166.173 570.862 166.42C570.122 166.42 569.382 166.42 568.642 166.42Z" fill="white"/>
<path d="M588.369 166.173H587.136C586.89 166.173 586.643 166.173 586.396 165.926C586.15 165.926 586.15 165.679 586.15 165.432L585.903 163.95C585.41 164.444 585.163 164.691 584.67 164.938C584.177 165.185 583.931 165.432 583.437 165.679C582.944 165.926 582.451 165.926 581.958 166.173C581.465 166.173 580.971 166.42 580.232 166.42C579.492 166.42 578.999 166.42 578.505 166.173C578.012 165.926 577.519 165.679 577.026 165.432C576.533 165.185 576.286 164.691 576.04 164.197C575.793 163.703 575.793 162.963 575.793 162.222C575.793 161.481 576.04 160.987 576.286 160.247C576.533 159.753 577.273 159.012 578.012 158.765C578.752 158.271 579.738 158.024 581.218 157.531C582.451 157.284 583.931 157.037 585.903 157.037V155.802C585.903 154.568 585.657 153.58 585.163 152.839C584.67 152.099 583.931 151.852 582.698 151.852C581.958 151.852 581.465 151.852 580.971 152.099C580.478 152.345 579.985 152.592 579.738 152.592C579.492 152.592 578.999 153.086 578.752 153.086C578.505 153.333 578.259 153.333 578.012 153.333C577.766 153.333 577.766 153.333 577.519 153.086C577.273 153.086 577.273 152.839 577.273 152.592L576.779 151.605C577.766 150.617 578.752 150.123 579.738 149.629C580.725 149.136 581.958 148.889 583.191 148.889C584.177 148.889 584.917 149.136 585.657 149.383C586.396 149.629 586.89 150.123 587.383 150.617C587.876 151.111 588.123 151.852 588.369 152.592C588.616 153.333 588.862 154.074 588.862 155.062V166.173H588.369ZM580.971 164.444C581.465 164.444 581.958 164.444 582.451 164.197C582.944 164.197 583.191 163.95 583.684 163.703C583.931 163.457 584.424 163.21 584.67 162.963C584.917 162.716 585.41 162.469 585.657 161.975V158.518C584.424 158.518 583.191 158.518 582.204 158.765C581.218 159.012 580.478 159.259 579.985 159.506C579.492 159.753 578.999 160 578.752 160.494C578.505 160.741 578.259 161.234 578.259 161.728C578.259 162.222 578.259 162.469 578.505 162.963C578.752 163.21 578.752 163.457 578.999 163.703C579.245 163.95 579.492 163.95 579.738 164.197C579.985 164.444 580.478 164.444 580.971 164.444Z" fill="white"/>
<path d="M596.752 142.469H593.793V166.172H596.752V142.469Z" fill="white"/>
</svg>
