<svg width="25" height="19" viewBox="0 0 25 19" fill="none" xmlns="http://www.w3.org/2000/svg">
<path fill-rule="evenodd" clip-rule="evenodd" d="M3.43934 16.2183C2.85355 16.8041 2.85355 17.7539 3.43934 18.3397C4.02513 18.9255 4.97487 18.9255 5.56066 18.3397L12.2781 11.6222L18.9974 18.3416C19.5832 18.9273 20.5329 18.9273 21.1187 18.3416C21.7045 17.7558 21.7045 16.806 21.1187 16.2202L14.3994 9.50091L21.117 2.78332C21.7028 2.19753 21.7028 1.24778 21.117 0.661996C20.5312 0.0762096 19.5815 0.0762097 18.9957 0.661996L12.2781 7.37959L5.56239 0.663884C4.9766 0.0780977 4.02685 0.0780977 3.44107 0.663884C2.85528 1.24967 2.85528 2.19942 3.44107 2.7852L10.1568 9.50091L3.43934 16.2183Z" fill="white"/>
</svg>
